<mxfile host="app.diagrams.net" modified="2022-05-24T00:01:53.646Z" agent="5.0 (Windows NT 10.0; Win64; x64) AppleWebKit/537.36 (KHTML, like Gecko) Chrome/101.0.4951.54 Safari/537.36 Edg/101.0.1210.39" etag="M61hFuKWW8du-7yboqht" version="18.1.1" type="github" pages="6">
  <diagram name="VRF核心组件概览" id="197159a0-c6a4-9194-75a8-e4174976684c">
    <mxGraphModel dx="1342" dy="645" grid="0" gridSize="10" guides="1" tooltips="1" connect="1" arrows="1" fold="1" page="1" pageScale="1.5" pageWidth="1169" pageHeight="826" background="none" math="0" shadow="0">
      <root>
        <mxCell id="0" style=";html=1;" />
        <mxCell id="1" style=";html=1;" parent="0" />
        <mxCell id="eN9nRApgs2fdK_-SKtKc-75" value="" style="group" vertex="1" connectable="0" parent="1">
          <mxGeometry x="780" y="454" width="286" height="167" as="geometry" />
        </mxCell>
        <mxCell id="eN9nRApgs2fdK_-SKtKc-24" value="" style="rounded=0;whiteSpace=wrap;html=1;" vertex="1" parent="eN9nRApgs2fdK_-SKtKc-75">
          <mxGeometry width="286" height="167" as="geometry" />
        </mxCell>
        <mxCell id="eN9nRApgs2fdK_-SKtKc-25" value="VRF交易监控分析" style="text;html=1;strokeColor=none;fillColor=none;align=center;verticalAlign=middle;whiteSpace=wrap;rounded=0;" vertex="1" parent="eN9nRApgs2fdK_-SKtKc-75">
          <mxGeometry width="125.83999999999999" height="30" as="geometry" />
        </mxCell>
        <mxCell id="eN9nRApgs2fdK_-SKtKc-32" value="内置合约数据同步&amp;amp;分析" style="rounded=0;whiteSpace=wrap;html=1;fontSize=12;" vertex="1" parent="eN9nRApgs2fdK_-SKtKc-75">
          <mxGeometry x="131" y="82" width="135.55" height="30" as="geometry" />
        </mxCell>
        <mxCell id="eN9nRApgs2fdK_-SKtKc-34" value="V1数据同步&amp;amp;分析" style="rounded=0;whiteSpace=wrap;html=1;fontSize=12;" vertex="1" parent="eN9nRApgs2fdK_-SKtKc-75">
          <mxGeometry x="132" y="122" width="134.55" height="30" as="geometry" />
        </mxCell>
        <mxCell id="eN9nRApgs2fdK_-SKtKc-35" value="V2数据同步&amp;amp;分析" style="rounded=0;whiteSpace=wrap;html=1;fontSize=12;" vertex="1" parent="eN9nRApgs2fdK_-SKtKc-75">
          <mxGeometry x="131" y="40" width="134.41" height="30" as="geometry" />
        </mxCell>
        <mxCell id="eN9nRApgs2fdK_-SKtKc-67" value="数据同步入库" style="whiteSpace=wrap;html=1;aspect=fixed;fontSize=12;" vertex="1" parent="eN9nRApgs2fdK_-SKtKc-75">
          <mxGeometry x="8.008" y="61.5" width="74.5" height="74.5" as="geometry" />
        </mxCell>
        <mxCell id="eN9nRApgs2fdK_-SKtKc-69" style="edgeStyle=orthogonalEdgeStyle;rounded=0;orthogonalLoop=1;jettySize=auto;html=1;entryX=1;entryY=0.5;entryDx=0;entryDy=0;fontSize=12;startArrow=none;startFill=0;" edge="1" parent="eN9nRApgs2fdK_-SKtKc-75" source="eN9nRApgs2fdK_-SKtKc-32" target="eN9nRApgs2fdK_-SKtKc-67">
          <mxGeometry relative="1" as="geometry" />
        </mxCell>
        <mxCell id="eN9nRApgs2fdK_-SKtKc-72" style="edgeStyle=orthogonalEdgeStyle;rounded=0;orthogonalLoop=1;jettySize=auto;html=1;entryX=1;entryY=0.5;entryDx=0;entryDy=0;fontSize=12;startArrow=none;startFill=0;" edge="1" parent="eN9nRApgs2fdK_-SKtKc-75" source="eN9nRApgs2fdK_-SKtKc-34" target="eN9nRApgs2fdK_-SKtKc-67">
          <mxGeometry relative="1" as="geometry" />
        </mxCell>
        <mxCell id="eN9nRApgs2fdK_-SKtKc-68" style="edgeStyle=orthogonalEdgeStyle;rounded=0;orthogonalLoop=1;jettySize=auto;html=1;entryX=1;entryY=0.5;entryDx=0;entryDy=0;fontSize=12;startArrow=none;startFill=0;" edge="1" parent="eN9nRApgs2fdK_-SKtKc-75" source="eN9nRApgs2fdK_-SKtKc-35" target="eN9nRApgs2fdK_-SKtKc-67">
          <mxGeometry relative="1" as="geometry" />
        </mxCell>
        <mxCell id="eN9nRApgs2fdK_-SKtKc-61" value="" style="group" vertex="1" connectable="0" parent="1">
          <mxGeometry x="1144" y="317" width="310" height="468" as="geometry" />
        </mxCell>
        <mxCell id="eN9nRApgs2fdK_-SKtKc-45" value="" style="shape=cube;whiteSpace=wrap;html=1;boundedLbl=1;backgroundOutline=1;darkOpacity=0.05;darkOpacity2=0.1;fontSize=12;" vertex="1" parent="eN9nRApgs2fdK_-SKtKc-61">
          <mxGeometry y="3" width="310" height="465" as="geometry" />
        </mxCell>
        <mxCell id="eN9nRApgs2fdK_-SKtKc-6" value="以太系链" style="text;html=1;strokeColor=none;fillColor=none;align=center;verticalAlign=middle;whiteSpace=wrap;rounded=0;" vertex="1" parent="eN9nRApgs2fdK_-SKtKc-61">
          <mxGeometry x="122" width="60" height="30" as="geometry" />
        </mxCell>
        <mxCell id="eN9nRApgs2fdK_-SKtKc-58" value="" style="group" vertex="1" connectable="0" parent="eN9nRApgs2fdK_-SKtKc-61">
          <mxGeometry x="40" y="262" width="250" height="180" as="geometry" />
        </mxCell>
        <mxCell id="eN9nRApgs2fdK_-SKtKc-51" value="" style="rounded=0;whiteSpace=wrap;html=1;fontSize=12;" vertex="1" parent="eN9nRApgs2fdK_-SKtKc-58">
          <mxGeometry width="250" height="180" as="geometry" />
        </mxCell>
        <mxCell id="eN9nRApgs2fdK_-SKtKc-2" value="内置VRF&lt;br&gt;随机数&lt;br&gt;生成合约" style="shape=card;whiteSpace=wrap;html=1;" vertex="1" parent="eN9nRApgs2fdK_-SKtKc-58">
          <mxGeometry x="151" y="100" width="88" height="60" as="geometry" />
        </mxCell>
        <mxCell id="eN9nRApgs2fdK_-SKtKc-4" style="edgeStyle=orthogonalEdgeStyle;rounded=0;orthogonalLoop=1;jettySize=auto;html=1;entryX=0;entryY=0;entryDx=0;entryDy=30;entryPerimeter=0;startArrow=classic;startFill=1;dashed=1;" edge="1" parent="eN9nRApgs2fdK_-SKtKc-58" source="eN9nRApgs2fdK_-SKtKc-3" target="eN9nRApgs2fdK_-SKtKc-2">
          <mxGeometry relative="1" as="geometry" />
        </mxCell>
        <mxCell id="eN9nRApgs2fdK_-SKtKc-3" value="VRF-V1&lt;br&gt;Coordinator" style="shape=card;whiteSpace=wrap;html=1;" vertex="1" parent="eN9nRApgs2fdK_-SKtKc-58">
          <mxGeometry x="14" y="100" width="87" height="60" as="geometry" />
        </mxCell>
        <mxCell id="eN9nRApgs2fdK_-SKtKc-31" value="&lt;span style=&quot;&quot;&gt;内置VRF随机数生成合约RPC数据接口&lt;/span&gt;" style="rounded=0;whiteSpace=wrap;html=1;fontSize=12;" vertex="1" parent="eN9nRApgs2fdK_-SKtKc-58">
          <mxGeometry x="26" y="44" width="208" height="40" as="geometry" />
        </mxCell>
        <mxCell id="eN9nRApgs2fdK_-SKtKc-52" value="PlatON链特有功能" style="text;html=1;strokeColor=none;fillColor=none;align=center;verticalAlign=middle;whiteSpace=wrap;rounded=0;fontSize=12;" vertex="1" parent="eN9nRApgs2fdK_-SKtKc-58">
          <mxGeometry x="70" width="110" height="30" as="geometry" />
        </mxCell>
        <mxCell id="eN9nRApgs2fdK_-SKtKc-5" value="VRF-V2&lt;br&gt;Coordinator" style="shape=card;whiteSpace=wrap;html=1;" vertex="1" parent="eN9nRApgs2fdK_-SKtKc-61">
          <mxGeometry x="112" y="62" width="80" height="60" as="geometry" />
        </mxCell>
        <mxCell id="1257a543d1cacc4b-52" value="VRF核心组件概览" style="text;strokeColor=none;fillColor=none;html=1;fontSize=24;fontStyle=1;verticalAlign=middle;align=center;" parent="1" vertex="1">
          <mxGeometry x="566" y="204" width="406" height="40" as="geometry" />
        </mxCell>
        <mxCell id="eN9nRApgs2fdK_-SKtKc-1" value="" style="rounded=0;whiteSpace=wrap;html=1;" vertex="1" parent="1">
          <mxGeometry x="146" y="299" width="240" height="485" as="geometry" />
        </mxCell>
        <mxCell id="eN9nRApgs2fdK_-SKtKc-7" value="VRF-V2&lt;br&gt;随机数&lt;br&gt;生成程序" style="whiteSpace=wrap;html=1;aspect=fixed;" vertex="1" parent="1">
          <mxGeometry x="1536" y="368" width="80" height="80" as="geometry" />
        </mxCell>
        <mxCell id="eN9nRApgs2fdK_-SKtKc-39" value="数据库" style="shape=cylinder3;whiteSpace=wrap;html=1;boundedLbl=1;backgroundOutline=1;size=15;fontSize=12;" vertex="1" parent="1">
          <mxGeometry x="696" y="684" width="110" height="100" as="geometry" />
        </mxCell>
        <mxCell id="eN9nRApgs2fdK_-SKtKc-48" value="门户前端" style="text;html=1;strokeColor=none;fillColor=none;align=center;verticalAlign=middle;whiteSpace=wrap;rounded=0;fontSize=12;" vertex="1" parent="1">
          <mxGeometry x="146" y="299" width="60" height="30" as="geometry" />
        </mxCell>
        <mxCell id="eN9nRApgs2fdK_-SKtKc-74" style="edgeStyle=orthogonalEdgeStyle;rounded=0;orthogonalLoop=1;jettySize=auto;html=1;entryX=0;entryY=0;entryDx=15;entryDy=15;entryPerimeter=0;fontSize=12;startArrow=none;startFill=0;dashed=1;" edge="1" parent="1" source="eN9nRApgs2fdK_-SKtKc-49" target="eN9nRApgs2fdK_-SKtKc-5">
          <mxGeometry relative="1" as="geometry" />
        </mxCell>
        <mxCell id="eN9nRApgs2fdK_-SKtKc-49" value="Subscription/Consumer增删" style="rounded=0;whiteSpace=wrap;html=1;fontSize=12;" vertex="1" parent="1">
          <mxGeometry x="170" y="371" width="190" height="47.5" as="geometry" />
        </mxCell>
        <mxCell id="eN9nRApgs2fdK_-SKtKc-62" style="edgeStyle=orthogonalEdgeStyle;rounded=0;orthogonalLoop=1;jettySize=auto;html=1;entryX=0;entryY=0.5;entryDx=0;entryDy=0;fontSize=12;startArrow=classic;startFill=1;dashed=1;" edge="1" parent="1" source="eN9nRApgs2fdK_-SKtKc-5" target="eN9nRApgs2fdK_-SKtKc-7">
          <mxGeometry relative="1" as="geometry" />
        </mxCell>
        <mxCell id="eN9nRApgs2fdK_-SKtKc-63" style="edgeStyle=orthogonalEdgeStyle;rounded=0;orthogonalLoop=1;jettySize=auto;html=1;entryX=1;entryY=0.5;entryDx=0;entryDy=0;fontSize=12;startArrow=none;startFill=0;" edge="1" parent="1" source="eN9nRApgs2fdK_-SKtKc-5" target="eN9nRApgs2fdK_-SKtKc-35">
          <mxGeometry relative="1" as="geometry">
            <Array as="points">
              <mxPoint x="1116" y="409" />
              <mxPoint x="1116" y="509" />
            </Array>
          </mxGeometry>
        </mxCell>
        <mxCell id="zCin7H-c0UoGZGDDaXdg-1" value="v2版VRF合约事件日志" style="edgeLabel;html=1;align=center;verticalAlign=middle;resizable=0;points=[];fontSize=12;" vertex="1" connectable="0" parent="eN9nRApgs2fdK_-SKtKc-63">
          <mxGeometry x="0.0726" y="3" relative="1" as="geometry">
            <mxPoint as="offset" />
          </mxGeometry>
        </mxCell>
        <mxCell id="eN9nRApgs2fdK_-SKtKc-64" style="edgeStyle=orthogonalEdgeStyle;rounded=0;orthogonalLoop=1;jettySize=auto;html=1;entryX=1;entryY=0.5;entryDx=0;entryDy=0;fontSize=12;startArrow=none;startFill=0;" edge="1" parent="1" source="eN9nRApgs2fdK_-SKtKc-31" target="eN9nRApgs2fdK_-SKtKc-32">
          <mxGeometry relative="1" as="geometry">
            <Array as="points">
              <mxPoint x="1116" y="643" />
              <mxPoint x="1116" y="551" />
            </Array>
          </mxGeometry>
        </mxCell>
        <mxCell id="zCin7H-c0UoGZGDDaXdg-2" value="内置VRF交易数据" style="edgeLabel;html=1;align=center;verticalAlign=middle;resizable=0;points=[];fontSize=12;" vertex="1" connectable="0" parent="eN9nRApgs2fdK_-SKtKc-64">
          <mxGeometry x="0.2399" y="-1" relative="1" as="geometry">
            <mxPoint x="1" y="-10" as="offset" />
          </mxGeometry>
        </mxCell>
        <mxCell id="eN9nRApgs2fdK_-SKtKc-65" style="edgeStyle=orthogonalEdgeStyle;rounded=0;orthogonalLoop=1;jettySize=auto;html=1;entryX=1;entryY=0.5;entryDx=0;entryDy=0;fontSize=12;startArrow=none;startFill=0;" edge="1" parent="1" source="eN9nRApgs2fdK_-SKtKc-3" target="eN9nRApgs2fdK_-SKtKc-34">
          <mxGeometry relative="1" as="geometry">
            <Array as="points">
              <mxPoint x="1096" y="709" />
              <mxPoint x="1096" y="591" />
            </Array>
          </mxGeometry>
        </mxCell>
        <mxCell id="zCin7H-c0UoGZGDDaXdg-3" value="v1版VRF合约事件日志" style="edgeLabel;html=1;align=center;verticalAlign=middle;resizable=0;points=[];fontSize=12;" vertex="1" connectable="0" parent="eN9nRApgs2fdK_-SKtKc-65">
          <mxGeometry x="0.094" y="1" relative="1" as="geometry">
            <mxPoint as="offset" />
          </mxGeometry>
        </mxCell>
        <mxCell id="eN9nRApgs2fdK_-SKtKc-76" value="" style="group" vertex="1" connectable="0" parent="1">
          <mxGeometry x="453" y="454" width="240" height="166.5" as="geometry" />
        </mxCell>
        <mxCell id="eN9nRApgs2fdK_-SKtKc-23" value="" style="rounded=0;whiteSpace=wrap;html=1;" vertex="1" parent="eN9nRApgs2fdK_-SKtKc-76">
          <mxGeometry width="240" height="166.5" as="geometry" />
        </mxCell>
        <mxCell id="eN9nRApgs2fdK_-SKtKc-17" value="门户API" style="text;html=1;strokeColor=none;fillColor=none;align=center;verticalAlign=middle;whiteSpace=wrap;rounded=0;" vertex="1" parent="eN9nRApgs2fdK_-SKtKc-76">
          <mxGeometry width="55" height="30" as="geometry" />
        </mxCell>
        <mxCell id="eN9nRApgs2fdK_-SKtKc-20" value="数据查询&amp;amp;统计" style="rounded=0;whiteSpace=wrap;html=1;align=left;" vertex="1" parent="eN9nRApgs2fdK_-SKtKc-76">
          <mxGeometry x="20" y="119" width="200" height="40" as="geometry" />
        </mxCell>
        <mxCell id="eN9nRApgs2fdK_-SKtKc-22" value="Subscription/Consumer数据预录入" style="rounded=0;whiteSpace=wrap;html=1;align=left;" vertex="1" parent="eN9nRApgs2fdK_-SKtKc-76">
          <mxGeometry x="20" y="29" width="200" height="40" as="geometry" />
        </mxCell>
        <mxCell id="eN9nRApgs2fdK_-SKtKc-86" value="链&amp;amp;合约调用信息" style="rounded=0;whiteSpace=wrap;html=1;align=left;" vertex="1" parent="eN9nRApgs2fdK_-SKtKc-76">
          <mxGeometry x="20" y="75" width="200" height="40" as="geometry" />
        </mxCell>
        <mxCell id="eN9nRApgs2fdK_-SKtKc-44" style="edgeStyle=orthogonalEdgeStyle;rounded=0;orthogonalLoop=1;jettySize=auto;html=1;entryX=0.145;entryY=0;entryDx=0;entryDy=4.35;entryPerimeter=0;fontSize=12;startArrow=classic;startFill=1;endArrow=none;endFill=0;" edge="1" parent="1" source="eN9nRApgs2fdK_-SKtKc-20" target="eN9nRApgs2fdK_-SKtKc-39">
          <mxGeometry relative="1" as="geometry" />
        </mxCell>
        <mxCell id="eN9nRApgs2fdK_-SKtKc-43" style="edgeStyle=orthogonalEdgeStyle;rounded=0;orthogonalLoop=1;jettySize=auto;html=1;entryX=0.5;entryY=0;entryDx=0;entryDy=0;entryPerimeter=0;fontSize=12;startArrow=none;startFill=0;" edge="1" parent="1" source="eN9nRApgs2fdK_-SKtKc-22" target="eN9nRApgs2fdK_-SKtKc-39">
          <mxGeometry relative="1" as="geometry" />
        </mxCell>
        <mxCell id="eN9nRApgs2fdK_-SKtKc-73" style="edgeStyle=orthogonalEdgeStyle;rounded=0;orthogonalLoop=1;jettySize=auto;html=1;entryX=0.6;entryY=-0.01;entryDx=0;entryDy=0;entryPerimeter=0;fontSize=12;startArrow=none;startFill=0;" edge="1" parent="1" source="eN9nRApgs2fdK_-SKtKc-67" target="eN9nRApgs2fdK_-SKtKc-39">
          <mxGeometry relative="1" as="geometry">
            <Array as="points">
              <mxPoint x="762" y="553" />
            </Array>
          </mxGeometry>
        </mxCell>
        <mxCell id="eN9nRApgs2fdK_-SKtKc-79" style="edgeStyle=orthogonalEdgeStyle;rounded=0;orthogonalLoop=1;jettySize=auto;html=1;entryX=0;entryY=0.5;entryDx=0;entryDy=0;fontSize=12;startArrow=none;startFill=0;dashed=1;endArrow=classicThin;endFill=1;" edge="1" parent="1" source="eN9nRApgs2fdK_-SKtKc-77" target="eN9nRApgs2fdK_-SKtKc-20">
          <mxGeometry relative="1" as="geometry" />
        </mxCell>
        <mxCell id="eN9nRApgs2fdK_-SKtKc-89" style="edgeStyle=orthogonalEdgeStyle;rounded=0;orthogonalLoop=1;jettySize=auto;html=1;entryX=0;entryY=0.75;entryDx=0;entryDy=0;dashed=1;fontSize=12;startArrow=none;startFill=0;endArrow=classicThin;endFill=1;" edge="1" parent="1" source="eN9nRApgs2fdK_-SKtKc-77" target="eN9nRApgs2fdK_-SKtKc-86">
          <mxGeometry relative="1" as="geometry">
            <Array as="points">
              <mxPoint x="378" y="593" />
              <mxPoint x="378" y="559" />
            </Array>
          </mxGeometry>
        </mxCell>
        <mxCell id="eN9nRApgs2fdK_-SKtKc-77" value="Subscription/Consumer查询" style="rounded=0;whiteSpace=wrap;html=1;fontSize=12;" vertex="1" parent="1">
          <mxGeometry x="171" y="569" width="190" height="47.5" as="geometry" />
        </mxCell>
        <mxCell id="eN9nRApgs2fdK_-SKtKc-78" style="edgeStyle=orthogonalEdgeStyle;rounded=0;orthogonalLoop=1;jettySize=auto;html=1;entryX=0;entryY=0.5;entryDx=0;entryDy=0;fontSize=12;startArrow=none;startFill=0;dashed=1;" edge="1" parent="1" source="eN9nRApgs2fdK_-SKtKc-49" target="eN9nRApgs2fdK_-SKtKc-22">
          <mxGeometry relative="1" as="geometry">
            <Array as="points">
              <mxPoint x="308" y="503" />
            </Array>
          </mxGeometry>
        </mxCell>
        <mxCell id="eN9nRApgs2fdK_-SKtKc-81" value="" style="endArrow=openThin;dashed=1;html=1;dashPattern=1 3;strokeWidth=2;rounded=0;fontSize=12;endFill=0;" edge="1" parent="1">
          <mxGeometry width="50" height="50" relative="1" as="geometry">
            <mxPoint x="704" y="274" as="sourcePoint" />
            <mxPoint x="784" y="274" as="targetPoint" />
          </mxGeometry>
        </mxCell>
        <mxCell id="eN9nRApgs2fdK_-SKtKc-85" value="调用请求" style="edgeLabel;html=1;align=center;verticalAlign=middle;resizable=0;points=[];fontSize=12;" vertex="1" connectable="0" parent="eN9nRApgs2fdK_-SKtKc-81">
          <mxGeometry x="-0.4147" y="3" relative="1" as="geometry">
            <mxPoint x="83" y="2" as="offset" />
          </mxGeometry>
        </mxCell>
        <mxCell id="eN9nRApgs2fdK_-SKtKc-83" value="" style="endArrow=openThin;html=1;strokeWidth=2;rounded=0;fontSize=12;endFill=0;" edge="1" parent="1">
          <mxGeometry width="50" height="50" relative="1" as="geometry">
            <mxPoint x="704" y="297.82" as="sourcePoint" />
            <mxPoint x="784" y="297.82" as="targetPoint" />
          </mxGeometry>
        </mxCell>
        <mxCell id="eN9nRApgs2fdK_-SKtKc-84" value="数据流" style="edgeLabel;html=1;align=center;verticalAlign=middle;resizable=0;points=[];fontSize=12;" vertex="1" connectable="0" parent="eN9nRApgs2fdK_-SKtKc-83">
          <mxGeometry x="-0.3265" relative="1" as="geometry">
            <mxPoint x="80" y="-1" as="offset" />
          </mxGeometry>
        </mxCell>
        <mxCell id="eN9nRApgs2fdK_-SKtKc-87" style="edgeStyle=orthogonalEdgeStyle;rounded=0;orthogonalLoop=1;jettySize=auto;html=1;entryX=0.5;entryY=1;entryDx=0;entryDy=0;fontSize=12;startArrow=classicThin;startFill=1;endArrow=none;endFill=0;dashed=1;" edge="1" parent="1" source="eN9nRApgs2fdK_-SKtKc-86" target="eN9nRApgs2fdK_-SKtKc-49">
          <mxGeometry relative="1" as="geometry" />
        </mxCell>
        <mxCell id="zCin7H-c0UoGZGDDaXdg-4" style="edgeStyle=orthogonalEdgeStyle;rounded=0;orthogonalLoop=1;jettySize=auto;html=1;entryX=1;entryY=0.5;entryDx=0;entryDy=0;fontSize=12;startArrow=none;startFill=0;endArrow=classicThin;endFill=1;exitX=0.327;exitY=-0.01;exitDx=0;exitDy=0;exitPerimeter=0;" edge="1" parent="1" source="eN9nRApgs2fdK_-SKtKc-39" target="eN9nRApgs2fdK_-SKtKc-86">
          <mxGeometry relative="1" as="geometry" />
        </mxCell>
      </root>
    </mxGraphModel>
  </diagram>
  <diagram id="TsslcDCiKWhLjADSjuSX" name="前端调用流程">
    <mxGraphModel dx="1422" dy="825" grid="0" gridSize="10" guides="1" tooltips="1" connect="1" arrows="1" fold="1" page="1" pageScale="1" pageWidth="827" pageHeight="1169" math="0" shadow="0">
      <root>
        <mxCell id="0" />
        <mxCell id="1" parent="0" />
        <mxCell id="0dqCrfmNEIScxQMEVwt3-1" style="edgeStyle=orthogonalEdgeStyle;rounded=0;orthogonalLoop=1;jettySize=auto;html=1;entryX=0.5;entryY=1;entryDx=0;entryDy=0;dashed=1;fontSize=12;startArrow=none;startFill=0;endArrow=classicThin;endFill=1;" edge="1" parent="1" source="IGESRjbjjZrmvNC7Vhr8-2" target="I2pJJLbp6TD3xAPZ1h9Y-1">
          <mxGeometry relative="1" as="geometry" />
        </mxCell>
        <mxCell id="0dqCrfmNEIScxQMEVwt3-2" value="5. 保存相关业务数据" style="edgeLabel;html=1;align=center;verticalAlign=middle;resizable=0;points=[];fontSize=12;" vertex="1" connectable="0" parent="0dqCrfmNEIScxQMEVwt3-1">
          <mxGeometry x="-0.3216" y="3" relative="1" as="geometry">
            <mxPoint x="2" y="-7" as="offset" />
          </mxGeometry>
        </mxCell>
        <mxCell id="IGESRjbjjZrmvNC7Vhr8-2" value="&lt;span style=&quot;background-color: rgb(255, 255, 255);&quot;&gt;3、构造并签名交易&lt;/span&gt;" style="rounded=0;whiteSpace=wrap;html=1;fontSize=12;" vertex="1" parent="1">
          <mxGeometry x="291" y="267" width="210" height="92" as="geometry" />
        </mxCell>
        <mxCell id="n_BV-dGGI0l1LHUvPqV1-1" style="edgeStyle=orthogonalEdgeStyle;rounded=0;orthogonalLoop=1;jettySize=auto;html=1;dashed=1;fontSize=12;startArrow=none;startFill=0;endArrow=classicThin;endFill=1;entryX=0;entryY=0.5;entryDx=0;entryDy=0;" edge="1" parent="1" source="hnHPIMs--N5sCZIMOS8V-1" target="IGESRjbjjZrmvNC7Vhr8-2">
          <mxGeometry relative="1" as="geometry">
            <mxPoint x="153" y="271" as="targetPoint" />
          </mxGeometry>
        </mxCell>
        <mxCell id="IGESRjbjjZrmvNC7Vhr8-5" value="1、发起【Subscription/Comsumer】&lt;br&gt;增删操作" style="edgeLabel;html=1;align=center;verticalAlign=middle;resizable=0;points=[];fontSize=12;" vertex="1" connectable="0" parent="n_BV-dGGI0l1LHUvPqV1-1">
          <mxGeometry x="-0.2851" y="-1" relative="1" as="geometry">
            <mxPoint x="30" y="-20" as="offset" />
          </mxGeometry>
        </mxCell>
        <mxCell id="2g0zreyUBG9jEloJQFP9-1" style="edgeStyle=orthogonalEdgeStyle;rounded=0;orthogonalLoop=1;jettySize=auto;html=1;entryX=0.5;entryY=0;entryDx=0;entryDy=0;fontSize=12;startArrow=none;startFill=0;endArrow=classicThin;endFill=1;dashed=1;" edge="1" parent="1" source="hnHPIMs--N5sCZIMOS8V-1" target="I2pJJLbp6TD3xAPZ1h9Y-1">
          <mxGeometry relative="1" as="geometry">
            <Array as="points">
              <mxPoint x="76" y="314" />
              <mxPoint x="76" y="204" />
              <mxPoint x="678" y="204" />
            </Array>
          </mxGeometry>
        </mxCell>
        <mxCell id="hnHPIMs--N5sCZIMOS8V-1" value="Actor" style="shape=umlActor;verticalLabelPosition=bottom;verticalAlign=top;html=1;outlineConnect=0;fontSize=12;" vertex="1" parent="1">
          <mxGeometry x="47" y="295" width="24" height="38" as="geometry" />
        </mxCell>
        <mxCell id="IGESRjbjjZrmvNC7Vhr8-3" style="edgeStyle=orthogonalEdgeStyle;rounded=0;orthogonalLoop=1;jettySize=auto;html=1;fontSize=12;startArrow=none;startFill=0;endArrow=classicThin;endFill=1;" edge="1" parent="1" source="I2pJJLbp6TD3xAPZ1h9Y-1" target="IGESRjbjjZrmvNC7Vhr8-2">
          <mxGeometry relative="1" as="geometry" />
        </mxCell>
        <mxCell id="IGESRjbjjZrmvNC7Vhr8-4" value="2、取【rpc链接、chainId、合约地址、abi、bin】" style="edgeLabel;html=1;align=center;verticalAlign=middle;resizable=0;points=[];fontSize=12;" vertex="1" connectable="0" parent="IGESRjbjjZrmvNC7Vhr8-3">
          <mxGeometry x="0.2185" y="4" relative="1" as="geometry">
            <mxPoint x="-58" y="-53" as="offset" />
          </mxGeometry>
        </mxCell>
        <mxCell id="I2pJJLbp6TD3xAPZ1h9Y-1" value="&lt;span style=&quot;text-align: left;&quot;&gt;门户API&lt;/span&gt;" style="rounded=0;whiteSpace=wrap;html=1;fontSize=12;" vertex="1" parent="1">
          <mxGeometry x="617" y="224" width="122" height="39" as="geometry" />
        </mxCell>
        <mxCell id="IGESRjbjjZrmvNC7Vhr8-6" style="edgeStyle=orthogonalEdgeStyle;rounded=0;orthogonalLoop=1;jettySize=auto;html=1;dashed=1;fontSize=12;startArrow=none;startFill=0;endArrow=classicThin;endFill=1;exitX=0.5;exitY=1;exitDx=0;exitDy=0;entryX=0;entryY=0.5;entryDx=0;entryDy=0;" edge="1" parent="1" source="IGESRjbjjZrmvNC7Vhr8-2" target="hmKFWGXkaDJaPQbaIKNX-1">
          <mxGeometry relative="1" as="geometry">
            <mxPoint x="619" y="426" as="targetPoint" />
          </mxGeometry>
        </mxCell>
        <mxCell id="IGESRjbjjZrmvNC7Vhr8-8" value="4、交易上链" style="edgeLabel;html=1;align=center;verticalAlign=middle;resizable=0;points=[];fontSize=12;" vertex="1" connectable="0" parent="IGESRjbjjZrmvNC7Vhr8-6">
          <mxGeometry x="-0.1241" y="-2" relative="1" as="geometry">
            <mxPoint x="7" y="-18" as="offset" />
          </mxGeometry>
        </mxCell>
        <mxCell id="hmKFWGXkaDJaPQbaIKNX-1" value="以太系链" style="rounded=0;whiteSpace=wrap;html=1;fontSize=12;" vertex="1" parent="1">
          <mxGeometry x="617" y="373" width="122" height="39" as="geometry" />
        </mxCell>
        <mxCell id="zIZjCv7Uqi0yyTaYYIaK-1" value="" style="endArrow=openThin;dashed=1;html=1;dashPattern=1 3;strokeWidth=2;rounded=0;fontSize=12;endFill=0;" edge="1" parent="1">
          <mxGeometry width="50" height="50" relative="1" as="geometry">
            <mxPoint x="310" y="127" as="sourcePoint" />
            <mxPoint x="390" y="127" as="targetPoint" />
          </mxGeometry>
        </mxCell>
        <mxCell id="zIZjCv7Uqi0yyTaYYIaK-2" value="调用请求" style="edgeLabel;html=1;align=center;verticalAlign=middle;resizable=0;points=[];fontSize=12;" vertex="1" connectable="0" parent="zIZjCv7Uqi0yyTaYYIaK-1">
          <mxGeometry x="-0.4147" y="3" relative="1" as="geometry">
            <mxPoint x="83" y="2" as="offset" />
          </mxGeometry>
        </mxCell>
        <mxCell id="zIZjCv7Uqi0yyTaYYIaK-3" value="" style="endArrow=openThin;html=1;strokeWidth=2;rounded=0;fontSize=12;endFill=0;" edge="1" parent="1">
          <mxGeometry width="50" height="50" relative="1" as="geometry">
            <mxPoint x="310" y="150.81999999999994" as="sourcePoint" />
            <mxPoint x="390" y="150.81999999999994" as="targetPoint" />
          </mxGeometry>
        </mxCell>
        <mxCell id="zIZjCv7Uqi0yyTaYYIaK-4" value="数据流" style="edgeLabel;html=1;align=center;verticalAlign=middle;resizable=0;points=[];fontSize=12;" vertex="1" connectable="0" parent="zIZjCv7Uqi0yyTaYYIaK-3">
          <mxGeometry x="-0.3265" relative="1" as="geometry">
            <mxPoint x="80" y="-1" as="offset" />
          </mxGeometry>
        </mxCell>
      </root>
    </mxGraphModel>
  </diagram>
  <diagram name="内置合约数据同步" id="pRcCOY-G_PizYMw8xbTQ">
    <mxGraphModel dx="1422" dy="825" grid="0" gridSize="10" guides="1" tooltips="1" connect="1" arrows="1" fold="1" page="1" pageScale="1" pageWidth="827" pageHeight="1169" math="0" shadow="0">
      <root>
        <mxCell id="3M1KfHB6pdu9vTTfiJSD-0" />
        <mxCell id="3M1KfHB6pdu9vTTfiJSD-1" parent="3M1KfHB6pdu9vTTfiJSD-0" />
        <mxCell id="3M1KfHB6pdu9vTTfiJSD-13" value="" style="endArrow=openThin;dashed=1;html=1;dashPattern=1 3;strokeWidth=2;rounded=0;fontSize=12;endFill=0;" edge="1" parent="3M1KfHB6pdu9vTTfiJSD-1">
          <mxGeometry width="50" height="50" relative="1" as="geometry">
            <mxPoint x="310" y="127" as="sourcePoint" />
            <mxPoint x="390" y="127" as="targetPoint" />
          </mxGeometry>
        </mxCell>
        <mxCell id="3M1KfHB6pdu9vTTfiJSD-14" value="调用请求" style="edgeLabel;html=1;align=center;verticalAlign=middle;resizable=0;points=[];fontSize=12;" vertex="1" connectable="0" parent="3M1KfHB6pdu9vTTfiJSD-13">
          <mxGeometry x="-0.4147" y="3" relative="1" as="geometry">
            <mxPoint x="83" y="2" as="offset" />
          </mxGeometry>
        </mxCell>
        <mxCell id="3M1KfHB6pdu9vTTfiJSD-15" value="" style="endArrow=openThin;html=1;strokeWidth=2;rounded=0;fontSize=12;endFill=0;" edge="1" parent="3M1KfHB6pdu9vTTfiJSD-1">
          <mxGeometry width="50" height="50" relative="1" as="geometry">
            <mxPoint x="310" y="150.81999999999994" as="sourcePoint" />
            <mxPoint x="390" y="150.81999999999994" as="targetPoint" />
          </mxGeometry>
        </mxCell>
        <mxCell id="3M1KfHB6pdu9vTTfiJSD-16" value="数据流" style="edgeLabel;html=1;align=center;verticalAlign=middle;resizable=0;points=[];fontSize=12;" vertex="1" connectable="0" parent="3M1KfHB6pdu9vTTfiJSD-15">
          <mxGeometry x="-0.3265" relative="1" as="geometry">
            <mxPoint x="80" y="-1" as="offset" />
          </mxGeometry>
        </mxCell>
        <mxCell id="Misc_ClzmIZWZ7MEMabK-0" style="edgeStyle=orthogonalEdgeStyle;rounded=0;orthogonalLoop=1;jettySize=auto;html=1;entryX=0.45;entryY=1.017;entryDx=0;entryDy=0;entryPerimeter=0;dashed=1;fontSize=12;startArrow=none;startFill=0;endArrow=classicThin;endFill=1;exitX=0;exitY=1;exitDx=0;exitDy=-15;exitPerimeter=0;" edge="1" parent="3M1KfHB6pdu9vTTfiJSD-1" source="1BLOimZu-jo4PxCUPVos-2" target="DJkb0PeJlAiO5Pub4D2W-0">
          <mxGeometry relative="1" as="geometry" />
        </mxCell>
        <mxCell id="Misc_ClzmIZWZ7MEMabK-1" value="1. 取PlatON链信息" style="edgeLabel;html=1;align=center;verticalAlign=middle;resizable=0;points=[];fontSize=12;" vertex="1" connectable="0" parent="Misc_ClzmIZWZ7MEMabK-0">
          <mxGeometry x="0.6468" y="-3" relative="1" as="geometry">
            <mxPoint x="54" y="75" as="offset" />
          </mxGeometry>
        </mxCell>
        <mxCell id="1BLOimZu-jo4PxCUPVos-2" value="数据库" style="shape=cylinder3;whiteSpace=wrap;html=1;boundedLbl=1;backgroundOutline=1;size=15;fontSize=12;" vertex="1" parent="3M1KfHB6pdu9vTTfiJSD-1">
          <mxGeometry x="494" y="391" width="60" height="80" as="geometry" />
        </mxCell>
        <mxCell id="Misc_ClzmIZWZ7MEMabK-4" style="edgeStyle=orthogonalEdgeStyle;rounded=0;orthogonalLoop=1;jettySize=auto;html=1;entryX=1;entryY=0.5;entryDx=0;entryDy=0;fontSize=12;startArrow=none;startFill=0;endArrow=classicThin;endFill=1;" edge="1" parent="3M1KfHB6pdu9vTTfiJSD-1" source="1BLOimZu-jo4PxCUPVos-0" target="DJkb0PeJlAiO5Pub4D2W-0">
          <mxGeometry relative="1" as="geometry" />
        </mxCell>
        <mxCell id="1BLOimZu-jo4PxCUPVos-0" value="&lt;span style=&quot;&quot;&gt;PlatON内置VRF合约数据RPC接口&lt;/span&gt;" style="rounded=0;whiteSpace=wrap;html=1;fontSize=12;" vertex="1" parent="3M1KfHB6pdu9vTTfiJSD-1">
          <mxGeometry x="481" y="245" width="83" height="52" as="geometry" />
        </mxCell>
        <mxCell id="Misc_ClzmIZWZ7MEMabK-2" style="edgeStyle=orthogonalEdgeStyle;rounded=0;orthogonalLoop=1;jettySize=auto;html=1;entryX=0.5;entryY=0;entryDx=0;entryDy=0;dashed=1;fontSize=12;startArrow=none;startFill=0;endArrow=classicThin;endFill=1;" edge="1" parent="3M1KfHB6pdu9vTTfiJSD-1" source="DJkb0PeJlAiO5Pub4D2W-0" target="1BLOimZu-jo4PxCUPVos-0">
          <mxGeometry relative="1" as="geometry">
            <Array as="points">
              <mxPoint x="281" y="201" />
              <mxPoint x="523" y="201" />
            </Array>
          </mxGeometry>
        </mxCell>
        <mxCell id="Misc_ClzmIZWZ7MEMabK-3" value="2、按区块取交易数据" style="edgeLabel;html=1;align=center;verticalAlign=middle;resizable=0;points=[];fontSize=12;" vertex="1" connectable="0" parent="Misc_ClzmIZWZ7MEMabK-2">
          <mxGeometry x="-0.0965" y="4" relative="1" as="geometry">
            <mxPoint x="-3" y="-8" as="offset" />
          </mxGeometry>
        </mxCell>
        <mxCell id="Misc_ClzmIZWZ7MEMabK-5" style="edgeStyle=orthogonalEdgeStyle;rounded=0;orthogonalLoop=1;jettySize=auto;html=1;entryX=0;entryY=0;entryDx=0;entryDy=27.5;entryPerimeter=0;fontSize=12;startArrow=none;startFill=0;endArrow=classicThin;endFill=1;exitX=0.75;exitY=1;exitDx=0;exitDy=0;" edge="1" parent="3M1KfHB6pdu9vTTfiJSD-1" source="DJkb0PeJlAiO5Pub4D2W-0" target="1BLOimZu-jo4PxCUPVos-2">
          <mxGeometry relative="1" as="geometry">
            <Array as="points">
              <mxPoint x="311" y="419" />
              <mxPoint x="418" y="419" />
            </Array>
          </mxGeometry>
        </mxCell>
        <mxCell id="Misc_ClzmIZWZ7MEMabK-6" value="3. 内置VRF合约数据入库" style="edgeLabel;html=1;align=center;verticalAlign=middle;resizable=0;points=[];fontSize=12;" vertex="1" connectable="0" parent="Misc_ClzmIZWZ7MEMabK-5">
          <mxGeometry x="-0.5415" y="2" relative="1" as="geometry">
            <mxPoint x="79" y="31" as="offset" />
          </mxGeometry>
        </mxCell>
        <mxCell id="Misc_ClzmIZWZ7MEMabK-7" style="edgeStyle=orthogonalEdgeStyle;rounded=0;orthogonalLoop=1;jettySize=auto;html=1;entryX=0.5;entryY=1;entryDx=0;entryDy=0;entryPerimeter=0;fontSize=12;startArrow=none;startFill=0;endArrow=classicThin;endFill=1;dashed=1;" edge="1" parent="3M1KfHB6pdu9vTTfiJSD-1" source="DJkb0PeJlAiO5Pub4D2W-0" target="1BLOimZu-jo4PxCUPVos-2">
          <mxGeometry relative="1" as="geometry">
            <Array as="points">
              <mxPoint x="242" y="491" />
              <mxPoint x="524" y="491" />
            </Array>
          </mxGeometry>
        </mxCell>
        <mxCell id="Misc_ClzmIZWZ7MEMabK-8" value="4. 更新PlatON链同步信息" style="edgeLabel;html=1;align=center;verticalAlign=middle;resizable=0;points=[];fontSize=12;" vertex="1" connectable="0" parent="Misc_ClzmIZWZ7MEMabK-7">
          <mxGeometry x="0.1341" y="2" relative="1" as="geometry">
            <mxPoint x="20" y="-8" as="offset" />
          </mxGeometry>
        </mxCell>
        <mxCell id="DJkb0PeJlAiO5Pub4D2W-0" value="遗留数据同步任务" style="rounded=0;whiteSpace=wrap;html=1;fontSize=12;" vertex="1" parent="3M1KfHB6pdu9vTTfiJSD-1">
          <mxGeometry x="221" y="241" width="120" height="60" as="geometry" />
        </mxCell>
      </root>
    </mxGraphModel>
  </diagram>
  <diagram name="Coordinator合约数据同步" id="8s-8HPDj_AndZTi1dfvv">
    <mxGraphModel dx="1422" dy="825" grid="0" gridSize="10" guides="1" tooltips="1" connect="1" arrows="1" fold="1" page="1" pageScale="1" pageWidth="827" pageHeight="1169" math="0" shadow="0">
      <root>
        <mxCell id="TIJpsCCU_ZOjBTuNwGLb-0" />
        <mxCell id="TIJpsCCU_ZOjBTuNwGLb-1" parent="TIJpsCCU_ZOjBTuNwGLb-0" />
        <mxCell id="TIJpsCCU_ZOjBTuNwGLb-2" value="" style="endArrow=openThin;dashed=1;html=1;dashPattern=1 3;strokeWidth=2;rounded=0;fontSize=12;endFill=0;" edge="1" parent="TIJpsCCU_ZOjBTuNwGLb-1">
          <mxGeometry width="50" height="50" relative="1" as="geometry">
            <mxPoint x="310" y="127" as="sourcePoint" />
            <mxPoint x="390" y="127" as="targetPoint" />
          </mxGeometry>
        </mxCell>
        <mxCell id="TIJpsCCU_ZOjBTuNwGLb-3" value="调用请求" style="edgeLabel;html=1;align=center;verticalAlign=middle;resizable=0;points=[];fontSize=12;" vertex="1" connectable="0" parent="TIJpsCCU_ZOjBTuNwGLb-2">
          <mxGeometry x="-0.4147" y="3" relative="1" as="geometry">
            <mxPoint x="83" y="2" as="offset" />
          </mxGeometry>
        </mxCell>
        <mxCell id="TIJpsCCU_ZOjBTuNwGLb-4" value="" style="endArrow=openThin;html=1;strokeWidth=2;rounded=0;fontSize=12;endFill=0;" edge="1" parent="TIJpsCCU_ZOjBTuNwGLb-1">
          <mxGeometry width="50" height="50" relative="1" as="geometry">
            <mxPoint x="310" y="150.81999999999994" as="sourcePoint" />
            <mxPoint x="390" y="150.81999999999994" as="targetPoint" />
          </mxGeometry>
        </mxCell>
        <mxCell id="TIJpsCCU_ZOjBTuNwGLb-5" value="数据流" style="edgeLabel;html=1;align=center;verticalAlign=middle;resizable=0;points=[];fontSize=12;" vertex="1" connectable="0" parent="TIJpsCCU_ZOjBTuNwGLb-4">
          <mxGeometry x="-0.3265" relative="1" as="geometry">
            <mxPoint x="80" y="-1" as="offset" />
          </mxGeometry>
        </mxCell>
        <mxCell id="TIJpsCCU_ZOjBTuNwGLb-6" style="edgeStyle=orthogonalEdgeStyle;rounded=0;orthogonalLoop=1;jettySize=auto;html=1;entryX=0.45;entryY=1.017;entryDx=0;entryDy=0;entryPerimeter=0;dashed=1;fontSize=12;startArrow=none;startFill=0;endArrow=classicThin;endFill=1;exitX=0;exitY=1;exitDx=0;exitDy=-15;exitPerimeter=0;" edge="1" parent="TIJpsCCU_ZOjBTuNwGLb-1" source="TIJpsCCU_ZOjBTuNwGLb-8" target="TIJpsCCU_ZOjBTuNwGLb-17">
          <mxGeometry relative="1" as="geometry" />
        </mxCell>
        <mxCell id="TIJpsCCU_ZOjBTuNwGLb-7" value="1. 取链信息" style="edgeLabel;html=1;align=center;verticalAlign=middle;resizable=0;points=[];fontSize=12;" vertex="1" connectable="0" parent="TIJpsCCU_ZOjBTuNwGLb-6">
          <mxGeometry x="0.6468" y="-3" relative="1" as="geometry">
            <mxPoint x="83" y="101" as="offset" />
          </mxGeometry>
        </mxCell>
        <mxCell id="bpBufri8phhtTgkZBr5e-6" value="1、读取链信息" style="edgeLabel;html=1;align=center;verticalAlign=middle;resizable=0;points=[];fontSize=12;" vertex="1" connectable="0" parent="TIJpsCCU_ZOjBTuNwGLb-6">
          <mxGeometry x="-0.2062" relative="1" as="geometry">
            <mxPoint x="38" y="-13" as="offset" />
          </mxGeometry>
        </mxCell>
        <mxCell id="TIJpsCCU_ZOjBTuNwGLb-8" value="数据库" style="shape=cylinder3;whiteSpace=wrap;html=1;boundedLbl=1;backgroundOutline=1;size=15;fontSize=12;" vertex="1" parent="TIJpsCCU_ZOjBTuNwGLb-1">
          <mxGeometry x="493" y="470" width="60" height="80" as="geometry" />
        </mxCell>
        <mxCell id="TIJpsCCU_ZOjBTuNwGLb-9" style="edgeStyle=orthogonalEdgeStyle;rounded=0;orthogonalLoop=1;jettySize=auto;html=1;entryX=1;entryY=0.5;entryDx=0;entryDy=0;fontSize=12;startArrow=none;startFill=0;endArrow=classicThin;endFill=1;" edge="1" parent="TIJpsCCU_ZOjBTuNwGLb-1" source="TIJpsCCU_ZOjBTuNwGLb-10" target="TIJpsCCU_ZOjBTuNwGLb-17">
          <mxGeometry relative="1" as="geometry" />
        </mxCell>
        <mxCell id="TIJpsCCU_ZOjBTuNwGLb-10" value="Web3j日志过滤" style="rounded=0;whiteSpace=wrap;html=1;fontSize=12;" vertex="1" parent="TIJpsCCU_ZOjBTuNwGLb-1">
          <mxGeometry x="481" y="245" width="83" height="52" as="geometry" />
        </mxCell>
        <mxCell id="TIJpsCCU_ZOjBTuNwGLb-11" style="edgeStyle=orthogonalEdgeStyle;rounded=0;orthogonalLoop=1;jettySize=auto;html=1;entryX=0.5;entryY=0;entryDx=0;entryDy=0;dashed=1;fontSize=12;startArrow=none;startFill=0;endArrow=classicThin;endFill=1;" edge="1" parent="TIJpsCCU_ZOjBTuNwGLb-1" source="TIJpsCCU_ZOjBTuNwGLb-17" target="TIJpsCCU_ZOjBTuNwGLb-10">
          <mxGeometry relative="1" as="geometry">
            <Array as="points">
              <mxPoint x="281" y="201" />
              <mxPoint x="523" y="201" />
            </Array>
          </mxGeometry>
        </mxCell>
        <mxCell id="TIJpsCCU_ZOjBTuNwGLb-12" value="2、按区块范围取Coordinator合约取日志列表" style="edgeLabel;html=1;align=center;verticalAlign=middle;resizable=0;points=[];fontSize=12;" vertex="1" connectable="0" parent="TIJpsCCU_ZOjBTuNwGLb-11">
          <mxGeometry x="-0.0965" y="4" relative="1" as="geometry">
            <mxPoint x="4" y="-8" as="offset" />
          </mxGeometry>
        </mxCell>
        <mxCell id="bpBufri8phhtTgkZBr5e-1" style="edgeStyle=orthogonalEdgeStyle;rounded=0;orthogonalLoop=1;jettySize=auto;html=1;entryX=0;entryY=0.5;entryDx=0;entryDy=0;dashed=1;fontSize=12;startArrow=none;startFill=0;endArrow=classicThin;endFill=1;" edge="1" parent="TIJpsCCU_ZOjBTuNwGLb-1" source="TIJpsCCU_ZOjBTuNwGLb-17" target="bpBufri8phhtTgkZBr5e-0">
          <mxGeometry relative="1" as="geometry">
            <Array as="points">
              <mxPoint x="312" y="375" />
            </Array>
          </mxGeometry>
        </mxCell>
        <mxCell id="bpBufri8phhtTgkZBr5e-2" value="3、日志解析" style="edgeLabel;html=1;align=center;verticalAlign=middle;resizable=0;points=[];fontSize=12;" vertex="1" connectable="0" parent="bpBufri8phhtTgkZBr5e-1">
          <mxGeometry x="-0.1598" relative="1" as="geometry">
            <mxPoint x="30" y="-14" as="offset" />
          </mxGeometry>
        </mxCell>
        <mxCell id="bpBufri8phhtTgkZBr5e-3" style="edgeStyle=orthogonalEdgeStyle;rounded=0;orthogonalLoop=1;jettySize=auto;html=1;fontSize=12;startArrow=none;startFill=0;endArrow=classicThin;endFill=1;" edge="1" parent="TIJpsCCU_ZOjBTuNwGLb-1" source="TIJpsCCU_ZOjBTuNwGLb-17" target="TIJpsCCU_ZOjBTuNwGLb-8">
          <mxGeometry relative="1" as="geometry">
            <Array as="points">
              <mxPoint x="293" y="492" />
            </Array>
          </mxGeometry>
        </mxCell>
        <mxCell id="bpBufri8phhtTgkZBr5e-4" value="4、入库/更新数据" style="edgeLabel;html=1;align=center;verticalAlign=middle;resizable=0;points=[];fontSize=12;" vertex="1" connectable="0" parent="bpBufri8phhtTgkZBr5e-3">
          <mxGeometry x="0.3376" y="2" relative="1" as="geometry">
            <mxPoint x="7" y="-9" as="offset" />
          </mxGeometry>
        </mxCell>
        <mxCell id="bpBufri8phhtTgkZBr5e-5" style="edgeStyle=orthogonalEdgeStyle;rounded=0;orthogonalLoop=1;jettySize=auto;html=1;entryX=0.5;entryY=1;entryDx=0;entryDy=0;entryPerimeter=0;fontSize=12;startArrow=none;startFill=0;endArrow=classicThin;endFill=1;" edge="1" parent="TIJpsCCU_ZOjBTuNwGLb-1" source="TIJpsCCU_ZOjBTuNwGLb-17" target="TIJpsCCU_ZOjBTuNwGLb-8">
          <mxGeometry relative="1" as="geometry">
            <Array as="points">
              <mxPoint x="240" y="570" />
              <mxPoint x="523" y="570" />
            </Array>
          </mxGeometry>
        </mxCell>
        <mxCell id="bpBufri8phhtTgkZBr5e-7" value="5、更新链同步信息" style="edgeLabel;html=1;align=center;verticalAlign=middle;resizable=0;points=[];fontSize=12;" vertex="1" connectable="0" parent="bpBufri8phhtTgkZBr5e-5">
          <mxGeometry x="0.3204" y="-4" relative="1" as="geometry">
            <mxPoint x="45" y="-15" as="offset" />
          </mxGeometry>
        </mxCell>
        <mxCell id="TIJpsCCU_ZOjBTuNwGLb-17" value="Coordinator合约日志同步任务" style="rounded=0;whiteSpace=wrap;html=1;fontSize=12;" vertex="1" parent="TIJpsCCU_ZOjBTuNwGLb-1">
          <mxGeometry x="221" y="241" width="120" height="60" as="geometry" />
        </mxCell>
        <mxCell id="bpBufri8phhtTgkZBr5e-0" value="V1/V2版Coordinator合约日志解析" style="rounded=0;whiteSpace=wrap;html=1;fontSize=12;" vertex="1" parent="TIJpsCCU_ZOjBTuNwGLb-1">
          <mxGeometry x="457" y="345" width="120" height="60" as="geometry" />
        </mxCell>
      </root>
    </mxGraphModel>
  </diagram>
  <diagram id="4MGQUYFm_vbCS_XBxj_w" name="核心数据关系">
    <mxGraphModel dx="1422" dy="825" grid="0" gridSize="10" guides="1" tooltips="1" connect="1" arrows="1" fold="1" page="1" pageScale="1" pageWidth="827" pageHeight="1169" math="0" shadow="0">
      <root>
        <mxCell id="0" />
        <mxCell id="1" parent="0" />
      </root>
    </mxGraphModel>
  </diagram>
  <diagram id="66WZYho3o_GXbHUU16Lt" name="部署结构">
    <mxGraphModel dx="1422" dy="825" grid="0" gridSize="10" guides="1" tooltips="1" connect="1" arrows="1" fold="1" page="1" pageScale="1" pageWidth="827" pageHeight="1169" math="0" shadow="0">
      <root>
        <mxCell id="0" />
        <mxCell id="1" parent="0" />
      </root>
    </mxGraphModel>
  </diagram>
</mxfile>
